<svg width="20" height="20" viewBox="0 0 20 20" fill="none" xmlns="http://www.w3.org/2000/svg">
<g clip-path="url(#clip0_6_655)">
<path d="M3.71875 3.75H10.2187V10.25H3.71875V3.75Z" fill="#2A5F9E"/>
<path d="M5.875 2.53125V4.375H3.59375L8.09375 10H9.96875V7.65625L5.875 2.53125Z" fill="white"/>
<path d="M9.96875 0.625V10H0.59375C0.59375 15.1875 4.78125 19.375 9.96875 19.375C15.1562 19.375 19.3438 15.1875 19.3438 10C19.3438 4.8125 15.125 0.625 9.96875 0.625Z" fill="#2A5F9E"/>
<path d="M3.40625 5.90625H1.53125C0.9375 7.15625 0.59375 8.53125 0.59375 10H4.34375V4.34375H3.40625V5.90625Z" fill="white"/>
<path d="M9.96875 8.46875L5.90625 3.4375H4.03125L9.34375 10H9.96875V8.46875Z" fill="#ED4C5C"/>
<path d="M5.875 1.5625V3.4375H3.40625V4.375H9.96875V0.625C8.5 0.625 7.09375 0.96875 5.875 1.5625Z" fill="white"/>
<path d="M9.96875 1.5625H5.875C3.96875 2.46875 2.4375 4.03125 1.53125 5.90625V10H3.40625V3.4375H9.96875V1.5625Z" fill="#ED4C5C"/>
<path d="M15.5938 8.7188C15.7813 8.25005 16.1875 7.9688 16.5312 8.0938C16.625 8.12505 16.7187 8.18755 16.75 8.2813C16.7187 8.00005 16.5938 7.75005 16.375 7.6563C16.0312 7.5313 15.5938 7.81255 15.4375 8.2813C15.3125 8.62505 15.3437 8.9688 15.5 9.18755C15.5312 9.06255 15.5313 8.9063 15.5938 8.7188ZM13.1562 7.6563C12.8125 7.5313 12.4062 7.81255 12.2187 8.2813C12.125 8.50005 12.125 8.68755 12.1563 8.87505C12 9.00005 11.7813 9.06255 11.5313 9.0938C11.3438 9.0938 11.1875 9.0938 11.0625 9.0313C11.2188 9.25005 11.5625 9.37505 11.9062 9.37505C12.4062 9.3438 12.8125 9.0313 12.7813 8.6563C12.7813 8.5313 12.7188 8.4063 12.625 8.31255C12.8125 8.12505 13.0937 8.0313 13.3125 8.0938C13.4062 8.12505 13.5 8.18755 13.5312 8.2813C13.5312 7.9688 13.375 7.75005 13.1562 7.6563ZM18.625 8.62505C18.3125 8.2813 17.9062 8.18755 17.7188 8.4688C17.6562 8.5313 17.625 8.62505 17.625 8.7188C17.5312 8.43755 17.5625 8.18755 17.6875 8.00005C17.9062 7.75005 18.3125 7.81255 18.5937 8.1563C18.8125 8.4063 18.9062 8.75005 18.875 9.00005C18.8125 8.87505 18.7187 8.7188 18.625 8.62505ZM11.3125 8.4688C11.4688 8.12505 11.375 7.7813 11.125 7.7188C11.0625 7.68755 10.9687 7.7188 10.875 7.7188C11.0312 7.56255 11.25 7.4688 11.4375 7.5313C11.7187 7.5938 11.7813 7.93755 11.625 8.2813C11.5 8.5313 11.2813 8.7188 11.0625 8.7813C11.1875 8.7188 11.2813 8.5938 11.3125 8.4688Z" fill="white"/>
<path d="M13.3125 9.9375C13.3125 9.9375 13.3438 11.5312 13.3438 11.6562C13.375 11.8125 13.4688 12.7188 14.75 13.25C14.75 13.25 15.75 12.8125 16 12.2187C16.25 11.625 16.2188 10.5 16.2188 10.5V9.875L13.3125 9.9375Z" fill="black"/>
<path d="M13.4375 10.0625C13.4375 10.0625 13.4687 11.5312 13.4687 11.6562C13.5 11.7812 13.5625 12.625 14.7812 13.125C14.7812 13.125 15.7187 12.7188 15.9687 12.1875C16.2187 11.625 16.1563 10.5938 16.1563 10.5938V10.0312L13.4375 10.0625Z" fill="white"/>
<path d="M16.1563 10.5313L15.7813 10.4062L15.2813 10.625L14.7812 10.4688L14.3438 10.625L13.8125 10.4062L13.4375 10.5625V11.0625L13.8125 10.9063L14.3438 11.125L14.7812 10.9687L15.2813 11.125L15.7813 10.9063L16.1875 11.0313L16.1563 10.5313ZM13.7188 12.3125C13.75 12.3125 14.375 12.5 14.375 12.5L14.8125 12.3125L15.3125 12.5C15.3125 12.5 15.875 12.2813 15.9375 12.2813C16.0938 12.3125 15.0938 13.125 14.8125 13.125C14.5625 13.1563 13.5625 12.375 13.7188 12.3125ZM16.0625 11.875C16 11.8438 15.75 11.7813 15.75 11.7813L15.2813 12L14.7812 11.8125L14.3438 12L13.8437 11.7813C13.8437 11.7813 13.5937 11.8438 13.5312 11.9063C13.5 11.9375 13.4687 11.5313 13.4687 11.5313L13.8437 11.375L14.3438 11.5938L14.7812 11.4063L15.2813 11.5938L15.75 11.375L16.1563 11.5C16.125 11.5 16.0938 11.9063 16.0625 11.875Z" fill="#1B81B6"/>
<path d="M15.8437 12.4062L15.8125 12.4375L15.8437 12.4062ZM14.8437 10.6875L13.5625 12.0625C13.625 12.1875 13.6875 12.3125 13.7812 12.4688L14.8437 11.375L15.8437 12.4375C15.9375 12.3125 16.0312 12.1563 16.0625 12L14.8437 10.6875Z" fill="url(#paint0_linear_6_655)"/>
<path d="M13.9375 8.84375L14.125 9.28125H15.4375L15.625 8.84375L14.7812 6.84375L13.9375 8.84375Z" fill="black"/>
<path d="M14 8.78125L14.1875 9.21875H15.375L15.5312 8.78125L14.7812 7L14 8.78125Z" fill="#7ED16D"/>
<path d="M13.7812 8.40625L14.4375 9.21875L15.25 9.1875L15.4062 8.625L14.8438 8.59375L14.4688 8.78125L13.7812 8.40625Z" fill="#93695A"/>
<path d="M14.7187 9.09375L13.7188 9.375L14.1875 9.9375V10.4688L14.6875 10.4062C14.6875 10.4062 14.9375 9.9375 14.9688 9.9375C15 9.9375 15.4375 10.0937 15.4375 10.0937L15.5313 9.84375L16.0938 9.65625L15.125 9.375L15.1562 9.125L14.7187 9.09375Z" fill="#6BAAA7"/>
<path d="M16.2189 9.3125C16.0314 9.40625 15.8439 9.46875 15.6564 9.4375C15.8752 9.40625 16.0939 9.21875 16.1564 9C16.2189 8.75 16.1564 8.5 15.9689 8.34375C16.0002 8.46875 16.0002 8.5625 15.9689 8.6875C15.8752 9.03125 15.5002 9.28125 15.1564 9.125C15.0002 9.0625 14.9689 8.84375 14.9689 8.75C14.8752 8.96875 14.8439 9.21875 14.9689 9.4375C14.9377 9.46875 14.9377 9.5 14.9064 9.53125C14.7814 9.84375 14.9377 10.1875 15.2502 10.2813C15.4689 10.375 15.7189 10.3125 15.8752 10.1562C15.7814 10.1875 15.6564 10.1563 15.5627 10.125C15.3752 10.0625 15.2502 9.90625 15.2189 9.75C15.5002 9.96875 15.8752 10 16.1877 9.8125C16.4689 9.625 16.5939 9.3125 16.5627 9C16.4689 9.09375 16.3752 9.21875 16.2189 9.3125Z" fill="url(#paint1_linear_6_655)"/>
<path d="M13.3125 8.09375C13.4687 8.5625 13.3437 9.0625 13 9.1875C12.9062 9.21875 12.8125 9.21875 12.7188 9.1875C12.9063 9.40625 13.1875 9.5 13.4063 9.40625C13.75 9.28125 13.9063 8.8125 13.7188 8.3125C13.5938 7.96875 13.3438 7.71875 13.0938 7.65625C13.1563 7.78125 13.25 7.9375 13.3125 8.09375Z" fill="url(#paint2_linear_6_655)"/>
<path d="M11.2814 8.5C11.1876 8.75 11.2814 9 11.4376 9.0625C11.5001 9.09375 11.5314 9.09375 11.5939 9.0625C11.5001 9.1875 11.3439 9.21875 11.2501 9.1875C11.0626 9.125 11.0001 8.875 11.0939 8.625C11.1564 8.4375 11.2814 8.3125 11.4376 8.28125C11.3439 8.34375 11.3126 8.40625 11.2814 8.5Z" fill="url(#paint3_linear_6_655)"/>
<path d="M18.1255 7.93754C17.8755 8.00004 17.688 8.18754 17.7192 8.37504C17.7192 8.43754 17.7505 8.46879 17.7817 8.50004C17.6255 8.46879 17.5317 8.37504 17.5005 8.25004C17.4692 8.06254 17.6567 7.87504 17.9067 7.81254C18.0942 7.78129 18.2817 7.81254 18.3755 7.93754H18.1255Z" fill="url(#paint4_linear_6_655)"/>
<path d="M17.4684 8.59375C17.0622 8.6875 16.6872 8.46875 16.6247 8.125C16.5934 8.03125 16.6247 7.9375 16.6559 7.84375C16.4684 8 16.3434 8.25 16.4059 8.5C16.4684 8.84375 16.8434 9.0625 17.2497 8.96875C17.5309 8.90625 17.7809 8.6875 17.8434 8.4375C17.7497 8.46875 17.6247 8.53125 17.4684 8.59375Z" fill="url(#paint5_linear_6_655)"/>
<path d="M11.2808 13.5313C10.8746 13.3751 12.1871 12.6876 12.7496 12.7188C13.1871 12.7501 14.0621 13.5001 13.7496 13.5938C12.2183 14.0001 12.2496 13.9063 11.2808 13.5313Z" fill="#74948F"/>
<path d="M12.6877 9.93728C12.719 9.81228 12.844 9.56228 12.9377 9.46853C13.0315 9.37478 13.2815 9.28103 13.4065 9.31228C13.5002 9.31228 13.719 9.43728 13.6877 9.49978H13.594C13.5002 9.53103 13.469 9.78103 13.4065 9.87478C13.344 9.93728 13.1565 9.96853 13.1252 10.031C13.094 10.0935 13.1565 10.3435 13.1565 10.3435L12.6877 10.3748C12.6877 10.3748 12.6565 10.0623 12.6877 9.93728Z" fill="#E5C9BD"/>
<path d="M12.8125 11.5312C12.8125 11.5625 13.0313 12.0938 13.0938 12.3125C13.1875 12.6875 12.5938 13.3438 12.625 13.0313C12.6875 12.625 12.4688 12.2187 12.4688 12.2187L12.8125 11.5312Z" fill="#C6A397"/>
<path d="M12.6566 11.8438C12.6254 11.875 12.6879 12.4375 12.6879 12.6562C12.6566 13.0625 11.9066 13.4687 12.0316 13.1875C12.2191 12.8125 12.1254 12.375 12.1254 12.375L12.6566 11.8438ZM12.9691 10.4062C12.9691 10.4375 13.4691 10.75 13.6254 10.875C13.9066 11.1562 13.7816 12 13.6566 11.7187C13.4691 11.3437 13.0941 11.125 13.0941 11.125L12.9691 10.4062Z" fill="#E5C9BD"/>
<path d="M12.813 10.125C12.438 10.1563 11.9067 10.9062 11.7505 11.25C11.5942 11.625 11.3755 12.8125 11.5942 12.875C11.8755 12.9688 12.813 12.25 13.0317 11.8438C13.2192 11.5313 13.313 10.7187 13.1567 10.375C13.1567 10.3125 12.938 10.125 12.813 10.125Z" fill="#D66B3C"/>
<path d="M18.3121 13.5313C18.7183 13.3751 17.4058 12.6876 16.8433 12.7188C16.4058 12.7501 15.5308 13.5001 15.8433 13.5938C17.3746 14.0001 17.3121 13.9063 18.3121 13.5313Z" fill="#74948F"/>
<path d="M16.9063 9.93728C16.8751 9.81228 16.7501 9.56228 16.6563 9.46853C16.5626 9.37478 16.3126 9.28103 16.1876 9.31228C16.0938 9.31228 15.8751 9.43728 15.9063 9.49978H16.0001C16.0938 9.53103 16.1251 9.78103 16.1876 9.87478C16.2501 9.93728 16.4376 9.96853 16.4688 10.031C16.5001 10.0935 16.4376 10.3435 16.4376 10.3435L16.9063 10.3748C16.8751 10.3748 16.9376 10.0623 16.9063 9.93728Z" fill="#E5C9BD"/>
<path d="M16.7815 11.5312C16.7815 11.5625 16.5628 12.0938 16.5003 12.3125C16.4065 12.6875 17.0003 13.3438 16.969 13.0313C16.9065 12.625 17.1253 12.2187 17.1253 12.2187L16.7815 11.5312Z" fill="#C6A397"/>
<path d="M16.9375 11.8438C16.9688 11.875 16.9063 12.4375 16.9063 12.6562C16.9375 13.0625 17.6875 13.4687 17.5625 13.1875C17.375 12.8125 17.4688 12.375 17.4688 12.375L16.9375 11.8438ZM16.625 10.4062C16.625 10.4375 16.125 10.75 15.9688 10.875C15.6875 11.1562 15.8125 12 15.9375 11.7187C16.125 11.3437 16.5 11.125 16.5 11.125L16.625 10.4062Z" fill="#E5C9BD"/>
<path d="M16.781 10.125C17.156 10.1563 17.6873 10.9062 17.8435 11.25C17.9998 11.625 18.2185 12.8125 17.9998 12.875C17.7185 12.9688 16.781 12.25 16.5623 11.8438C16.3748 11.5313 16.281 10.7187 16.4373 10.375C16.4373 10.3125 16.656 10.125 16.781 10.125Z" fill="#D66B3C"/>
</g>
<defs>
<linearGradient id="paint0_linear_6_655" x1="2742.67" y1="-2717.24" x2="2744.14" y2="-2715.77" gradientUnits="userSpaceOnUse">
<stop stop-color="#288549"/>
<stop offset="1" stop-color="#288549"/>
</linearGradient>
<linearGradient id="paint1_linear_6_655" x1="14.8627" y1="20.625" x2="16.5346" y2="20.625" gradientUnits="userSpaceOnUse">
<stop stop-color="#288549"/>
<stop offset="1" stop-color="#288549"/>
</linearGradient>
<linearGradient id="paint2_linear_6_655" x1="-2477.42" y1="-1518.93" x2="-2476.61" y2="-1520.25" gradientUnits="userSpaceOnUse">
<stop stop-color="#288549"/>
<stop offset="1" stop-color="#288549"/>
</linearGradient>
<linearGradient id="paint3_linear_6_655" x1="1288.83" y1="-774.768" x2="1288.4" y2="-775.461" gradientUnits="userSpaceOnUse">
<stop stop-color="#288549"/>
<stop offset="1" stop-color="#288549"/>
</linearGradient>
<linearGradient id="paint4_linear_6_655" x1="1194.71" y1="628.501" x2="1195.09" y2="627.782" gradientUnits="userSpaceOnUse">
<stop stop-color="#288549"/>
<stop offset="1" stop-color="#288549"/>
</linearGradient>
<linearGradient id="paint5_linear_6_655" x1="1687.3" y1="-2013.38" x2="1688.33" y2="-2012.52" gradientUnits="userSpaceOnUse">
<stop stop-color="#288549"/>
<stop offset="1" stop-color="#288549"/>
</linearGradient>
<clipPath id="clip0_6_655">
<rect width="20" height="20" fill="white"/>
</clipPath>
</defs>
</svg>
