<svg width="22" height="22" viewBox="0 0 22 22" fill="none" xmlns="http://www.w3.org/2000/svg">
<mask id="mask0_344_23" style="mask-type:alpha" maskUnits="userSpaceOnUse" x="0" y="0" width="22" height="22">
<path d="M22 0.44043H0V21.5604H22V0.44043Z" fill="#D9D9D9"/>
</mask>
<g mask="url(#mask0_344_23)">
<path d="M10.083 18.9201V17.1601H17.4163V10.9121C17.4163 9.19608 16.7937 7.74041 15.5486 6.54508C14.3035 5.34975 12.7872 4.75208 10.9997 4.75208C9.21217 4.75208 7.69585 5.34975 6.45072 6.54508C5.20558 7.74041 4.58301 9.19608 4.58301 10.9121V16.2801H3.66634C3.16217 16.2801 2.73058 16.1078 2.37155 15.7631C2.01252 15.4184 1.83301 15.0041 1.83301 14.5201V12.7601C1.83301 12.4521 1.91322 12.1624 2.07363 11.8911C2.23405 11.6198 2.45939 11.4034 2.74967 11.2421L2.81842 10.0761C2.94064 9.07877 3.24238 8.15475 3.72363 7.30408C4.20488 6.45341 4.80835 5.71275 5.53405 5.08208C6.25975 4.45141 7.09238 3.96008 8.03197 3.60808C8.97155 3.25608 9.96082 3.08008 10.9997 3.08008C12.0385 3.08008 13.024 3.25608 13.9559 3.60808C14.8879 3.96008 15.7205 4.44775 16.4538 5.07108C17.1872 5.69441 17.7906 6.43141 18.2643 7.28208C18.7379 8.13275 19.0434 9.05677 19.1809 10.0541L19.2497 11.1981C19.54 11.3301 19.7653 11.5281 19.9257 11.7921C20.0861 12.0561 20.1663 12.3348 20.1663 12.6281V14.6521C20.1663 14.9454 20.0861 15.2241 19.9257 15.4881C19.7653 15.7521 19.54 15.9501 19.2497 16.0821V17.1601C19.2497 17.6441 19.0702 18.0584 18.7111 18.4031C18.3521 18.7478 17.9205 18.9201 17.4163 18.9201H10.083ZM8.24967 12.7601C7.98996 12.7601 7.77225 12.6758 7.59655 12.5071C7.42085 12.3384 7.33301 12.1294 7.33301 11.8801C7.33301 11.6308 7.42085 11.4218 7.59655 11.2531C7.77225 11.0844 7.98996 11.0001 8.24967 11.0001C8.50939 11.0001 8.7271 11.0844 8.9028 11.2531C9.0785 11.4218 9.16634 11.6308 9.16634 11.8801C9.16634 12.1294 9.0785 12.3384 8.9028 12.5071C8.7271 12.6758 8.50939 12.7601 8.24967 12.7601ZM13.7497 12.7601C13.49 12.7601 13.2723 12.6758 13.0966 12.5071C12.9208 12.3384 12.833 12.1294 12.833 11.8801C12.833 11.6308 12.9208 11.4218 13.0966 11.2531C13.2723 11.0844 13.49 11.0001 13.7497 11.0001C14.0094 11.0001 14.2271 11.0844 14.4028 11.2531C14.5785 11.4218 14.6663 11.6308 14.6663 11.8801C14.6663 12.1294 14.5785 12.3384 14.4028 12.5071C14.2271 12.6758 14.0094 12.7601 13.7497 12.7601ZM5.52259 11.3961C5.41564 9.84138 5.90454 8.50675 6.98926 7.39208C8.07398 6.27741 9.42603 5.72008 11.0455 5.72008C12.4052 5.72008 13.6007 6.13441 14.632 6.96308C15.6632 7.79175 16.2858 8.85138 16.4997 10.1421C15.1094 10.1274 13.8299 9.76808 12.6611 9.06408C11.4924 8.36008 10.5948 7.40675 9.96842 6.20408C9.72395 7.37741 9.20832 8.42241 8.42155 9.33908C7.63475 10.2558 6.66842 10.9414 5.52259 11.3961Z" fill="white"/>
</g>
</svg>
