<svg width="22" height="22" viewBox="0 0 22 22" fill="none" xmlns="http://www.w3.org/2000/svg">
<path d="M20.074 10.6569L11.7724 2.72034L11.2159 2.18808C11.0892 2.06761 10.9177 2 10.739 2C10.5603 2 10.3888 2.06761 10.262 2.18808L1.404 10.6569C1.27408 10.7807 1.17141 10.9281 1.10204 11.0904C1.03267 11.2528 0.997999 11.4268 1.00009 11.6021C1.00868 12.3255 1.63818 12.903 2.39443 12.903H3.30751V19.5963H18.1704V12.903H19.1029C19.4702 12.903 19.8161 12.7653 20.0761 12.5167C20.2041 12.3946 20.3055 12.2495 20.3745 12.0897C20.4434 11.9299 20.4786 11.7586 20.4779 11.5857C20.4779 11.2363 20.3339 10.9055 20.074 10.6569ZM11.9421 18.1166H9.53583V13.9244H11.9421V18.1166ZM16.6236 11.4233V18.1166H13.3171V13.4311C13.3171 12.9769 12.9325 12.6091 12.4577 12.6091H9.0202C8.5454 12.6091 8.16083 12.9769 8.16083 13.4311V18.1166H4.85439V11.4233H2.79189L10.7411 3.82594L11.2374 4.30065L18.6882 11.4233H16.6236Z" fill="white"/>
</svg>
