<svg width="22" height="23" viewBox="0 0 22 23" fill="none" xmlns="http://www.w3.org/2000/svg">
<path d="M20.3347 11.3497L12.0331 3.0524L11.4766 2.49595C11.3499 2.37 11.1784 2.29932 10.9997 2.29932C10.821 2.29932 10.6495 2.37 10.5227 2.49595L1.66474 11.3497C1.53482 11.4791 1.43215 11.6332 1.36278 11.8029C1.29341 11.9727 1.25874 12.1546 1.26083 12.3379C1.26942 13.0942 1.89892 13.6979 2.65517 13.6979H3.56825V20.6954H18.4311V13.6979H19.3636C19.7309 13.6979 20.0768 13.554 20.3368 13.294C20.4648 13.1664 20.5662 13.0147 20.6352 12.8476C20.7041 12.6806 20.7393 12.5015 20.7386 12.3207C20.7386 11.9555 20.5946 11.6096 20.3347 11.3497ZM12.2028 19.1485H9.79657V14.7657H12.2028V19.1485ZM16.8843 12.151V19.1485H13.5778V14.25C13.5778 13.7752 13.1932 13.3907 12.7184 13.3907H9.28094C8.80614 13.3907 8.42157 13.7752 8.42157 14.25V19.1485H5.11513V12.151H3.05263L11.0018 4.20826L11.4981 4.70454L18.9489 12.151H16.8843Z" fill="#8E8E8E"/>
</svg>
