<svg width="22" height="22" viewBox="0 0 22 22" fill="none" xmlns="http://www.w3.org/2000/svg">
<path d="M17.6667 3H4.83333C4.3471 3 3.88079 3.18475 3.53697 3.51362C3.19315 3.84249 3 4.28853 3 4.75362V17.029C3 17.4941 3.19315 17.9401 3.53697 18.269C3.88079 18.5978 4.3471 18.7826 4.83333 18.7826H17.6667C18.1529 18.7826 18.6192 18.5978 18.963 18.269C19.3068 17.9401 19.5 17.4941 19.5 17.029V4.75362C19.5 4.28853 19.3068 3.84249 18.963 3.51362C18.6192 3.18475 18.1529 3 17.6667 3ZM4.83333 4.75362H13.0833V17.029H4.83333V4.75362ZM14.9167 17.029V4.75362H17.6667V17.029H14.9167Z" fill="#8E8E8E"/>
</svg>
