<svg width="22" height="23" viewBox="0 0 22 23" fill="none" xmlns="http://www.w3.org/2000/svg">
<path d="M17.4167 3.25H4.58333C4.0971 3.25 3.63079 3.44315 3.28697 3.78697C2.94315 4.13079 2.75 4.5971 2.75 5.08333V17.9167C2.75 18.4029 2.94315 18.8692 3.28697 19.213C3.63079 19.5568 4.0971 19.75 4.58333 19.75H17.4167C17.9029 19.75 18.3692 19.5568 18.713 19.213C19.0568 18.8692 19.25 18.4029 19.25 17.9167V5.08333C19.25 4.5971 19.0568 4.13079 18.713 3.78697C18.3692 3.44315 17.9029 3.25 17.4167 3.25ZM4.58333 5.08333H12.8333V17.9167H4.58333V5.08333ZM14.6667 17.9167V5.08333H17.4167V17.9167H14.6667Z" fill="white"/>
</svg>
