<svg width="20" height="20" viewBox="0 0 20 20" fill="none" xmlns="http://www.w3.org/2000/svg">
<g clip-path="url(#clip0_6_783)">
<path d="M10 19.375C14.0938 19.375 17.5625 16.7812 18.8438 13.125H1.15625C2.4375 16.7812 5.90625 19.375 10 19.375Z" fill="#ED4C5C"/>
<path d="M10 0.625C5.90625 0.625 2.4375 3.25 1.15625 6.875H18.8438C17.5625 3.25 14.0938 0.625 10 0.625Z" fill="#699635"/>
<path d="M18.8438 13.125C19.1875 12.1562 19.375 11.0938 19.375 10C19.375 8.90625 19.1875 7.84375 18.8438 6.875H1.15625C0.8125 7.84375 0.625 8.90625 0.625 10C0.625 11.0938 0.8125 12.1562 1.15625 13.125H18.8438Z" fill="#FFCE31"/>
<path d="M10 14.375C12.4162 14.375 14.375 12.4162 14.375 10C14.375 7.58375 12.4162 5.625 10 5.625C7.58375 5.625 5.625 7.58375 5.625 10C5.625 12.4162 7.58375 14.375 10 14.375Z" fill="#428BC1"/>
<path d="M11.1875 10.4062L13.0938 9.0625H10.75L10 6.875L9.28125 9.0625H6.9375L8.84375 10.4062L8.125 12.5938L10 11.25L11.9062 12.5938L11.1875 10.4062ZM12.2812 9.3125L11.0938 10.1562L10.8125 9.3125H12.2812ZM9.125 10.3125L9.46875 9.3125H10.5625L10.9063 10.3125L10 10.9375L9.125 10.3125ZM10 7.6875L10.4687 9.0625H9.5625L10 7.6875ZM7.71875 9.3125H9.1875L8.90625 10.1562L7.71875 9.3125ZM8.59375 11.9375L9.03125 10.5625L9.78125 11.0938L8.59375 11.9375ZM11.4062 11.9375L10.2188 11.0938L10.9687 10.5625L11.4062 11.9375Z" fill="#FFCE31"/>
<path d="M9.875 11.6562V13.125H10.125V11.6562L10 11.5625L9.875 11.6562ZM8.09375 10.2188L6.875 10.5625L6.9375 10.8125L8.375 10.4062L8.09375 10.2188ZM9.09375 8.78125L9.15625 8.53125L8.1875 7.34375L8 7.5L9.03125 8.78125H9.09375ZM10.9687 8.78125L12 7.5L11.8125 7.34375L10.8438 8.53125L10.9063 8.78125H10.9687ZM11.9062 10.2188L11.625 10.4062L13.0625 10.8125L13.125 10.5625L11.9062 10.2188Z" fill="#FFCE31"/>
</g>
<defs>
<clipPath id="clip0_6_783">
<rect width="20" height="20" fill="white"/>
</clipPath>
</defs>
</svg>
