<svg width="22" height="22" viewBox="0 0 22 22" fill="none" xmlns="http://www.w3.org/2000/svg">
<path d="M11.1353 9.86136C11.1192 9.84081 11.0987 9.8242 11.0752 9.81277C11.0518 9.80135 11.026 9.79541 10.9999 9.79541C10.9738 9.79541 10.9481 9.80135 10.9246 9.81277C10.9012 9.8242 10.8807 9.84081 10.8646 9.86136L8.45834 12.9057C8.4385 12.931 8.42619 12.9614 8.42282 12.9934C8.41945 13.0254 8.42515 13.0577 8.43927 13.0866C8.45338 13.1155 8.47535 13.1399 8.50266 13.1569C8.52997 13.1739 8.56151 13.1829 8.59369 13.1828H10.1814V18.3907C10.1814 18.4852 10.2587 18.5625 10.3533 18.5625H11.6423C11.7368 18.5625 11.8142 18.4852 11.8142 18.3907V13.185H13.4062C13.5501 13.185 13.6296 13.0196 13.5415 12.9078L11.1353 9.86136Z" fill="#449898"/>
<path d="M17.4324 7.87832C16.4484 5.28301 13.9412 3.4375 11.0043 3.4375C8.06738 3.4375 5.56016 5.28086 4.57617 7.87617C2.73496 8.35957 1.375 10.0375 1.375 12.0312C1.375 14.4053 3.29785 16.3281 5.66973 16.3281H6.53125C6.62578 16.3281 6.70312 16.2508 6.70312 16.1562V14.8672C6.70312 14.7727 6.62578 14.6953 6.53125 14.6953H5.66973C4.9457 14.6953 4.26465 14.4074 3.75762 13.8854C3.25273 13.3654 2.98418 12.665 3.00781 11.9389C3.02715 11.3717 3.22051 10.8389 3.5707 10.3898C3.92949 9.93223 4.43223 9.59922 4.99082 9.45098L5.80508 9.23828L6.10371 8.45195C6.28848 7.96211 6.54629 7.50449 6.8707 7.08984C7.19097 6.67886 7.57035 6.31759 7.99648 6.01777C8.87949 5.39688 9.91934 5.06816 11.0043 5.06816C12.0893 5.06816 13.1291 5.39688 14.0121 6.01777C14.4396 6.31855 14.8178 6.67949 15.1379 7.08984C15.4623 7.50449 15.7201 7.96426 15.9049 8.45195L16.2014 9.23613L17.0135 9.45098C18.1779 9.76465 18.9922 10.8238 18.9922 12.0312C18.9922 12.7424 18.715 13.4127 18.2123 13.9154C17.9658 14.1634 17.6725 14.36 17.3494 14.4939C17.0264 14.6278 16.68 14.6962 16.3303 14.6953H15.4688C15.3742 14.6953 15.2969 14.7727 15.2969 14.8672V16.1562C15.2969 16.2508 15.3742 16.3281 15.4688 16.3281H16.3303C18.7021 16.3281 20.625 14.4053 20.625 12.0312C20.625 10.0396 19.2693 8.36387 17.4324 7.87832Z" fill="#449898"/>
</svg>
