<svg width="30" height="30" viewBox="0 0 30 30" fill="none" xmlns="http://www.w3.org/2000/svg">
<g clip-path="url(#clip0_6_291)">
<path d="M27.2465 5.80309C24.2875 3.79722 20.5038 4.9891 18.7938 8.464L14.4834 17.2324C13.2362 19.7645 14.8419 20.6492 16.6322 21.9099L20.7799 24.721C22.1845 25.6724 23.9785 25.1077 24.7886 23.4604L29.2198 14.4491C30.7083 11.4211 29.8251 7.55121 27.2465 5.80309Z" fill="#EA4335"/>
<path d="M22.3692 9.43237L18.2216 6.62118C15.932 5.12861 14.6353 5.02981 13.6954 6.78439L7.57805 19.2253C5.86993 22.6979 6.88665 27.1391 9.84388 29.1406C12.4225 30.8887 15.718 29.8515 17.2067 26.8234L23.441 14.142C24.2548 12.4926 23.7738 10.3837 22.3692 9.43237Z" fill="#FBBC04"/>
<path d="M23.1676 3.03701L20.2544 1.061C17.0321 -1.12294 12.9117 0.172013 11.0519 3.956L5.50514 15.2371C4.68588 16.9016 5.17233 19.032 6.58971 19.9918L9.85221 22.2038C11.4633 23.2971 13.5225 22.6483 14.4535 20.7564L20.7901 7.8688C22.1032 5.19949 25.0092 4.28463 27.2823 5.8266L23.1676 3.03688V3.03701Z" fill="#34A853"/>
<path d="M11.8398 7.18386L8.69061 5.05345C7.28611 4.10418 5.49209 4.66675 4.68197 6.31193L0.903493 13.9787C-0.956272 17.752 0.146462 22.5796 3.36877 24.7574L5.76631 26.3788L8.6742 28.3458L9.93607 29.1984C7.6958 27.4374 6.98435 23.909 8.35404 21.13L9.33256 19.1456L12.9151 11.8761C13.7235 10.2353 13.2425 8.13299 11.8398 7.18372V7.18386Z" fill="#4285F4"/>
</g>
<defs>
<clipPath id="clip0_6_291">
<rect width="30" height="30" fill="white"/>
</clipPath>
</defs>
</svg>
