<svg width="22" height="23" viewBox="0 0 22 23" fill="none" xmlns="http://www.w3.org/2000/svg">
<path d="M11 1.875C9.09636 1.875 7.23546 2.4395 5.65264 3.49711C4.06982 4.55471 2.83616 6.05793 2.10766 7.81667C1.37917 9.57541 1.18856 11.5107 1.55995 13.3777C1.93133 15.2448 2.84802 16.9598 4.1941 18.3059C5.54018 19.652 7.25519 20.5687 9.12226 20.9401C10.9893 21.3114 12.9246 21.1208 14.6833 20.3923C16.4421 19.6638 17.9453 18.4302 19.0029 16.8474C20.0605 15.2645 20.625 13.4036 20.625 11.5C20.625 8.94729 19.6109 6.49913 17.8059 4.6941C16.0009 2.88906 13.5527 1.875 11 1.875ZM11 19.75C9.36831 19.75 7.77326 19.2661 6.41655 18.3596C5.05984 17.4531 4.00242 16.1646 3.378 14.6571C2.75358 13.1496 2.5902 11.4908 2.90853 9.8905C3.22685 8.29016 4.01259 6.82015 5.16637 5.66637C6.32016 4.51259 7.79017 3.72685 9.39051 3.40852C10.9909 3.09019 12.6497 3.25357 14.1571 3.87799C15.6646 4.50242 16.9531 5.55984 17.8596 6.91655C18.7661 8.27325 19.25 9.8683 19.25 11.5C19.25 13.688 18.3808 15.7865 16.8336 17.3336C15.2865 18.8808 13.188 19.75 11 19.75Z" fill="white"/>
<path d="M11 17.6875C11.5695 17.6875 12.0312 17.2258 12.0312 16.6562C12.0312 16.0867 11.5695 15.625 11 15.625C10.4305 15.625 9.96875 16.0867 9.96875 16.6562C9.96875 17.2258 10.4305 17.6875 11 17.6875Z" fill="white"/>
<path d="M11.6875 6.00001H10.6563C10.2497 5.9991 9.84702 6.07851 9.47126 6.23366C9.0955 6.38881 8.75409 6.61666 8.46662 6.90412C8.17916 7.19159 7.95131 7.533 7.79616 7.90876C7.64101 8.28452 7.5616 8.68723 7.56251 9.09376V9.43751H8.93751V9.09376C8.93751 8.63792 9.11859 8.20075 9.44092 7.87842C9.76325 7.55609 10.2004 7.37501 10.6563 7.37501H11.6875C12.1433 7.37501 12.5805 7.55609 12.9028 7.87842C13.2252 8.20075 13.4063 8.63792 13.4063 9.09376C13.4063 9.5496 13.2252 9.98677 12.9028 10.3091C12.5805 10.6314 12.1433 10.8125 11.6875 10.8125H10.3125V13.9063H11.6875V12.1875C12.508 12.1875 13.2949 11.8616 13.8751 11.2814C14.4553 10.7012 14.7813 9.91427 14.7813 9.09376C14.7813 8.27324 14.4553 7.48634 13.8751 6.90615C13.2949 6.32596 12.508 6.00001 11.6875 6.00001Z" fill="white"/>
</svg>
