<svg width="22" height="22" viewBox="0 0 22 22" fill="none" xmlns="http://www.w3.org/2000/svg">
<path d="M10.625 2C8.72136 2 6.86046 2.53996 5.27764 3.55158C3.69482 4.5632 2.46116 6.00106 1.73266 7.68334C1.00417 9.36561 0.81356 11.2168 1.18495 13.0026C1.55633 14.7885 2.47302 16.4289 3.8191 17.7165C5.16518 19.0041 6.88019 19.8809 8.74726 20.2362C10.6143 20.5913 12.5496 20.409 14.3083 19.7122C16.0671 19.0154 17.5703 17.8354 18.6279 16.3214C19.6855 14.8073 20.25 13.0274 20.25 11.2065C20.25 8.7648 19.2359 6.42308 17.4309 4.69653C15.6259 2.96997 13.1777 2 10.625 2ZM10.625 19.0978C8.99331 19.0978 7.39826 18.635 6.04155 17.7679C4.68484 16.9008 3.62742 15.6683 3.003 14.2264C2.37858 12.7844 2.2152 11.1977 2.53353 9.667C2.85185 8.13624 3.63759 6.73014 4.79137 5.62653C5.94516 4.52291 7.41517 3.77133 9.01551 3.46685C10.6159 3.16236 12.2747 3.31863 13.7821 3.9159C15.2896 4.51318 16.5781 5.52463 17.4846 6.82235C18.3911 8.12007 18.875 9.64577 18.875 11.2065C18.875 13.2994 18.0058 15.3067 16.4586 16.7865C14.9115 18.2664 12.813 19.0978 10.625 19.0978Z" fill="#8E8E8E"/>
<path d="M10.625 17.1242C11.1945 17.1242 11.6562 16.6826 11.6562 16.1377C11.6562 15.593 11.1945 15.1514 10.625 15.1514C10.0555 15.1514 9.59375 15.593 9.59375 16.1377C9.59375 16.6826 10.0555 17.1242 10.625 17.1242Z" fill="#8E8E8E"/>
<path d="M11.3125 5.94532H10.2813C9.8747 5.94445 9.47202 6.02041 9.09626 6.16881C8.7205 6.31722 8.37909 6.53516 8.09162 6.81012C7.80416 7.08509 7.57631 7.41166 7.42116 7.77108C7.26601 8.1305 7.1866 8.5157 7.18751 8.90456V9.23336H8.56251V8.90456C8.56251 8.46854 8.74359 8.05038 9.06592 7.74206C9.38825 7.43374 9.8254 7.26054 10.2813 7.26054H11.3125C11.7683 7.26054 12.2055 7.43374 12.5278 7.74206C12.8502 8.05038 13.0313 8.46854 13.0313 8.90456C13.0313 9.34058 12.8502 9.75874 12.5278 10.0671C12.2055 10.3753 11.7683 10.5486 11.3125 10.5486H9.9375V13.5079H11.3125V11.8638C12.133 11.8638 12.9199 11.5521 13.5001 10.9971C14.0803 10.4421 14.4063 9.68939 14.4063 8.90456C14.4063 8.11971 14.0803 7.36703 13.5001 6.81206C12.9199 6.2571 12.133 5.94532 11.3125 5.94532Z" fill="#8E8E8E"/>
</svg>
