<svg width="20" height="20" viewBox="0 0 20 20" fill="none" xmlns="http://www.w3.org/2000/svg">
<mask id="mask0_1740_918" style="mask-type:alpha" maskUnits="userSpaceOnUse" x="0" y="0" width="20" height="20">
<rect width="20" height="20" fill="#D9D9D9"/>
</mask>
<g mask="url(#mask0_1740_918)">
<path d="M13.4166 11.0834L12.2083 9.87504C12.3333 9.22226 12.1458 8.61115 11.6458 8.04171C11.1458 7.47226 10.4999 7.25004 9.70825 7.37504L8.49992 6.16671C8.73603 6.0556 8.97561 5.97226 9.21867 5.91671C9.46172 5.86115 9.72214 5.83337 9.99992 5.83337C11.0416 5.83337 11.927 6.19796 12.6562 6.92712C13.3853 7.65629 13.7499 8.54171 13.7499 9.58337C13.7499 9.86115 13.7221 10.1216 13.6666 10.3646C13.611 10.6077 13.5277 10.8473 13.4166 11.0834ZM16.0833 13.7084L14.8749 12.5417C15.4027 12.1389 15.8714 11.698 16.2812 11.2188C16.6909 10.7396 17.0416 10.1945 17.3333 9.58337C16.6388 8.1806 15.6423 7.06601 14.3437 6.23962C13.0451 5.41324 11.5971 5.00004 9.99992 5.00004C9.59714 5.00004 9.20131 5.02782 8.81242 5.08337C8.42353 5.13893 8.04158 5.22226 7.66658 5.33337L6.37492 4.04171C6.94436 3.8056 7.5277 3.62851 8.12492 3.51046C8.72214 3.3924 9.34714 3.33337 9.99992 3.33337C12.0971 3.33337 13.9652 3.91324 15.6041 5.07296C17.243 6.23268 18.4305 7.73615 19.1666 9.58337C18.8471 10.4028 18.427 11.1632 17.9062 11.8646C17.3853 12.566 16.7777 13.1806 16.0833 13.7084ZM16.4999 18.8334L12.9999 15.375C12.5138 15.5278 12.0242 15.6424 11.5312 15.7188C11.0381 15.7952 10.5277 15.8334 9.99992 15.8334C7.9027 15.8334 6.03464 15.2535 4.39575 14.0938C2.75686 12.9341 1.56936 11.4306 0.833252 9.58337C1.12492 8.84726 1.49297 8.16324 1.93742 7.53129C2.38186 6.89935 2.88881 6.33337 3.45825 5.83337L1.16659 3.50004L2.33325 2.33337L17.6666 17.6667L16.4999 18.8334ZM4.62492 7.00004C4.22214 7.36115 3.85409 7.75699 3.52075 8.18754C3.18742 8.6181 2.9027 9.08337 2.66659 9.58337C3.36103 10.9862 4.35756 12.1007 5.65617 12.9271C6.95478 13.7535 8.4027 14.1667 9.99992 14.1667C10.2777 14.1667 10.5485 14.1493 10.8124 14.1146C11.0763 14.0799 11.3471 14.0417 11.6249 14L10.8749 13.2084C10.7221 13.25 10.5763 13.2813 10.4374 13.3021C10.2985 13.323 10.1527 13.3334 9.99992 13.3334C8.95825 13.3334 8.07283 12.9688 7.34367 12.2396C6.6145 11.5105 6.24992 10.625 6.24992 9.58337C6.24992 9.4306 6.26033 9.28476 6.28117 9.14587C6.302 9.00699 6.33325 8.86115 6.37492 8.70837L4.62492 7.00004Z" fill="#ABABAB"/>
</g>
</svg>
