<svg width="20" height="20" viewBox="0 0 20 20" fill="none" xmlns="http://www.w3.org/2000/svg">
<g clip-path="url(#clip0_6_756)">
<path d="M17.5 4.375H10V6.25H18.5938C18.3125 5.59375 17.9375 4.9375 17.5 4.375Z" fill="#ED4C5C"/>
<path d="M19.1875 11.875C19.3125 11.2812 19.375 10.6562 19.375 10H0.625C0.625 10.6562 0.6875 11.2812 0.8125 11.875H19.1875Z" fill="#F9F9F9"/>
<path d="M10 0.625V2.5H15.625C14.0625 1.3125 12.125 0.625 10 0.625Z" fill="#ED4C5C"/>
<path d="M10 4.375H17.5C16.9687 3.65625 16.3437 3.03125 15.625 2.5H10V4.375ZM18.5937 6.25H10V8.125H19.1875C19.0625 7.46875 18.8437 6.84375 18.5937 6.25Z" fill="#F9F9F9"/>
<path d="M10 8.125V10H19.375C19.375 9.34375 19.3125 8.71875 19.1875 8.125H10ZM1.40625 13.75H18.5938C18.8438 13.1562 19.0625 12.5312 19.1875 11.875H0.8125C0.9375 12.5312 1.15625 13.1562 1.40625 13.75Z" fill="#ED4C5C"/>
<path d="M2.5 15.625H17.5C17.9375 15.0625 18.3125 14.4062 18.5938 13.75H1.40625C1.6875 14.4062 2.0625 15.0625 2.5 15.625Z" fill="#F9F9F9"/>
<path d="M2.5 15.625C3.03125 16.3438 3.65625 16.9688 4.375 17.5H15.625C16.3438 16.9688 16.9688 16.3438 17.5 15.625H2.5Z" fill="#ED4C5C"/>
<path d="M4.375 17.5C5.9375 18.6875 7.875 19.375 10 19.375C12.125 19.375 14.0625 18.6875 15.625 17.5H4.375Z" fill="#F9F9F9"/>
<path d="M10 0.625C4.8125 0.625 0.625 4.8125 0.625 10H10V0.625Z" fill="#2A5F9E"/>
<path d="M6.25 6.9375L8 8.125L7.34375 6.21875L9.0625 5.03125H6.90625L6.25 3.125L5.59375 5.03125H3.4375L5.15625 6.21875L4.5 8.125L6.25 6.9375Z" fill="white"/>
</g>
<defs>
<clipPath id="clip0_6_756">
<rect width="20" height="20" fill="white"/>
</clipPath>
</defs>
</svg>
