<svg width="19" height="19" viewBox="0 0 19 19" fill="none" xmlns="http://www.w3.org/2000/svg">
<g clip-path="url(#clip0_6_1399)">
<path d="M14.75 8.32275H4.25C3.42157 8.32275 2.75 8.99433 2.75 9.82275V15.8228C2.75 16.6512 3.42157 17.3228 4.25 17.3228H14.75C15.5784 17.3228 16.25 16.6512 16.25 15.8228V9.82275C16.25 8.99433 15.5784 8.32275 14.75 8.32275Z" stroke="white" stroke-width="2" stroke-linecap="round" stroke-linejoin="round"/>
<path d="M5 5.32275C5 4.72602 5.23705 4.15372 5.65901 3.73176C6.08097 3.30981 6.65326 3.07275 7.25 3.07275H11.75C12.3467 3.07275 12.919 3.30981 13.341 3.73176C13.7629 4.15372 14 4.72602 14 5.32275V8.32275H5V5.32275Z" stroke="white" stroke-width="2" stroke-linecap="round" stroke-linejoin="round"/>
</g>
<defs>
<clipPath id="clip0_6_1399">
<rect width="18" height="18" fill="white" transform="translate(0.5 0.822754)"/>
</clipPath>
</defs>
</svg>
