<svg width="19" height="18" viewBox="0 0 19 18" fill="none" xmlns="http://www.w3.org/2000/svg">
<g clip-path="url(#clip0_6_1439)">
<path d="M4 3H12V7.9H13V3C13 2.73478 12.8946 2.48043 12.7071 2.29289C12.5196 2.10536 12.2652 2 12 2H4C3.73478 2 3.48043 2.10536 3.29289 2.29289C3.10536 2.48043 3 2.73478 3 3V15C3 15.2652 3.10536 15.5196 3.29289 15.7071C3.48043 15.8946 3.73478 16 4 16H12C12.2652 16 12.5196 15.8946 12.7071 15.7071C12.8946 15.5196 13 15.2652 13 15H4V3Z" fill="#757575"/>
<path d="M14.5795 8.63976C14.4838 8.55785 14.3608 8.51504 14.2349 8.5199C14.1091 8.52476 13.9897 8.57693 13.9007 8.66598C13.8116 8.75503 13.7595 8.87439 13.7546 9.00023C13.7497 9.12607 13.7925 9.24911 13.8745 9.34476L15.5645 10.9998H8.31445C8.18184 10.9998 8.05467 11.0524 7.9609 11.1462C7.86713 11.24 7.81445 11.3672 7.81445 11.4998C7.81445 11.6324 7.86713 11.7595 7.9609 11.8533C8.05467 11.9471 8.18184 11.9998 8.31445 11.9998H15.5645L13.8745 13.7298C13.8221 13.7746 13.7796 13.8297 13.7496 13.8918C13.7196 13.9538 13.7027 14.0214 13.7001 14.0902C13.6974 14.1591 13.709 14.2278 13.7341 14.2919C13.7593 14.3561 13.7974 14.4144 13.8461 14.4631C13.8949 14.5118 13.9531 14.5499 14.0173 14.5751C14.0815 14.6002 14.1501 14.6118 14.219 14.6092C14.2878 14.6065 14.3554 14.5896 14.4174 14.5596C14.4795 14.5296 14.5346 14.4871 14.5795 14.4348L17.4995 11.5348L14.5795 8.63976Z" fill="#757575"/>
</g>
<defs>
<clipPath id="clip0_6_1439">
<rect width="18" height="18" fill="white" transform="translate(0.5)"/>
</clipPath>
</defs>
</svg>
