<svg width="48" height="48" viewBox="0 0 48 48" fill="none" xmlns="http://www.w3.org/2000/svg">
<path d="M23.9999 33.6C18.698 33.6 14.3999 29.3019 14.3999 24C14.3999 18.6981 18.698 14.4 23.9999 14.4C29.3018 14.4 33.5999 18.6981 33.5999 24C33.5999 29.3019 29.3018 33.6 23.9999 33.6Z" fill="white"/>
<path d="M5.40197 27.2793C2.61997 27.7699 0.713054 30.4572 1.78097 33.0726C3.27192 36.7238 5.65053 39.9769 8.73422 42.519C13.1437 46.1537 18.7053 48.0959 24.4189 47.9962C30.1325 47.8965 35.623 45.7614 39.903 41.9748C42.896 39.3268 45.1597 35.9926 46.5224 32.2916C47.4984 29.6406 45.4987 27.0214 42.7013 26.6283C39.904 26.2352 37.3923 28.2713 36.0106 30.7353C35.2616 32.0708 34.2893 33.2825 33.1245 34.3131C30.6688 36.4857 27.5186 37.7107 24.2405 37.7679C20.9622 37.8251 17.7712 36.7108 15.2413 34.6252C14.0411 33.636 13.0272 32.459 12.232 31.1504C10.7652 28.7361 8.18397 26.7888 5.40197 27.2793Z" fill="white"/>
<path d="M47.8144 26.9991C47.937 26.0165 48 25.0156 48 23.9999C48 10.7451 37.2549 0 24 0C10.7452 0 0 10.7451 0 23.9999C0 25.3034 0.10392 26.5826 0.303936 27.8298C1.4063 26.3207 3.12682 25.2434 4.98522 24.9158C6.99592 24.5612 8.82333 25.0489 10.3684 25.9604C10.2772 25.3201 10.2299 24.6655 10.2299 23.9999C10.2299 16.395 16.395 10.2299 24 10.2299C31.605 10.2299 37.7701 16.395 37.7701 23.9999C37.7701 24.5014 37.7432 24.9966 37.691 25.4841C39.2035 24.5188 41.0131 23.9673 43.0354 24.2516C44.9035 24.5142 46.66 25.5301 47.8144 26.9991Z" fill="white"/>
</svg>
