<svg width="22" height="23" viewBox="0 0 22 23" fill="none" xmlns="http://www.w3.org/2000/svg">
<path d="M10.9997 2.3335C5.94517 2.3335 1.83301 5.62341 1.83301 9.66683C1.83301 12.3325 3.57284 14.7232 6.41634 16.023V20.6668L11.3113 16.9956C16.2219 16.8645 20.1663 13.6268 20.1663 9.66683C20.1663 5.62341 16.0542 2.3335 10.9997 2.3335ZM10.9997 15.1668H10.6944L8.24967 17.0002V14.7846L7.66209 14.5582C5.19717 13.6094 3.66634 11.7348 3.66634 9.66683C3.66634 6.63358 6.95626 4.16683 10.9997 4.16683C15.0431 4.16683 18.333 6.63358 18.333 9.66683C18.333 12.7001 15.0431 15.1668 10.9997 15.1668Z" fill="white"/>
</svg>
