<svg width="22" height="22" viewBox="0 0 22 22" fill="none" xmlns="http://www.w3.org/2000/svg">
<path d="M11.1667 2C6.11216 2 2 5.14687 2 9.01449C2 11.5643 3.73983 13.851 6.58333 15.0943V19.5362L11.4783 16.0246C16.3889 15.8992 20.3333 12.8023 20.3333 9.01449C20.3333 5.14687 16.2212 2 11.1667 2ZM11.1667 14.2753H10.8614L8.41666 16.029V13.9097L7.82908 13.6932C5.36416 12.7856 3.83333 10.9925 3.83333 9.01449C3.83333 6.11312 7.12325 3.75362 11.1667 3.75362C15.2101 3.75362 18.5 6.11312 18.5 9.01449C18.5 11.9159 15.2101 14.2753 11.1667 14.2753Z" fill="#8E8E8E"/>
</svg>
