<svg width="26" height="26" viewBox="0 0 26 26" fill="none" xmlns="http://www.w3.org/2000/svg">
<path d="M23.5625 4.0625H2.4375C1.98809 4.0625 1.625 4.42559 1.625 4.875V21.125C1.625 21.5744 1.98809 21.9375 2.4375 21.9375H23.5625C24.0119 21.9375 24.375 21.5744 24.375 21.125V4.875C24.375 4.42559 24.0119 4.0625 23.5625 4.0625ZM22.5469 6.87578V20.1094H3.45312V6.87578L2.75234 6.32988L3.7502 5.04766L4.83691 5.89316H21.1656L22.2523 5.04766L23.2502 6.32988L22.5469 6.87578ZM21.1656 5.89062L13 12.2383L4.83437 5.89062L3.74766 5.04512L2.7498 6.32734L3.45059 6.87324L12.124 13.617C12.3735 13.8108 12.6803 13.916 12.9962 13.916C13.3121 13.916 13.6189 13.8108 13.8684 13.617L22.5469 6.87578L23.2477 6.32988L22.2498 5.04766L21.1656 5.89062Z" fill="#919191"/>
</svg>
