<svg width="30" height="30" viewBox="0 0 30 30" fill="none" xmlns="http://www.w3.org/2000/svg">
<g clip-path="url(#clip0_6_269)">
<path d="M25.4494 2.33513C23.8165 0.757445 20.8648 0.0810547 17.0887 0.0810547H6.12931C5.7557 0.0810664 5.39435 0.194055 5.11022 0.399707C4.82609 0.605359 4.63783 0.890184 4.57927 1.20297L0.0159922 25.7361C-0.074711 26.2199 0.367203 26.658 0.945641 26.658H7.71158L9.4108 17.5218L9.35807 17.8079C9.47912 17.1621 10.1307 16.6858 10.9022 16.6858H14.1174C20.4336 16.6858 25.3792 14.511 26.8239 8.22009C26.8668 8.03403 26.904 7.85294 26.9361 7.67602C26.7537 7.59416 26.7537 7.59416 26.9361 7.67602C27.3663 5.35082 26.9331 3.76807 25.4494 2.33513Z" fill="#27346A"/>
<path d="M11.9997 6.8384C12.1847 6.76374 12.387 6.72505 12.5919 6.72516H21.1838C22.2012 6.72516 23.1502 6.78128 24.0174 6.89959C24.2601 6.93239 24.5015 6.97155 24.7413 7.01701C25.0812 7.08059 25.4171 7.1584 25.7479 7.25016C26.1742 7.37085 26.5713 7.51142 26.9362 7.67602C27.3663 5.34993 26.9331 3.76807 25.4494 2.33513C23.8156 0.757445 20.8648 0.0810547 17.0887 0.0810547H6.12838C5.3567 0.0810547 4.70021 0.55728 4.57927 1.20297L0.0159928 25.7352C-0.0747103 26.2198 0.367204 26.6573 0.944704 26.6573H7.71158L11.2369 7.70661C11.2716 7.52034 11.3591 7.344 11.492 7.19276C11.6249 7.04152 11.7991 6.91992 11.9997 6.8384Z" fill="#27346A"/>
<path d="M26.8239 8.2201C25.3792 14.5102 20.4336 16.6858 14.1173 16.6858H10.9012C10.1297 16.6858 9.47799 17.1621 9.35811 17.8079L7.24417 29.1676C7.16518 29.591 7.55143 29.9747 8.05674 29.9747H13.7603C14.087 29.9746 14.4029 29.8757 14.6513 29.6958C14.8997 29.5159 15.0642 29.2668 15.1153 28.9932L15.1708 28.7469L16.2458 22.9718L16.3151 22.6526C16.3661 22.3791 16.5306 22.1299 16.779 21.95C17.0274 21.7701 17.3433 21.6712 17.67 21.6711H18.5236C24.0486 21.6711 28.3748 19.7684 29.6391 14.2655C30.1667 11.9658 29.8937 10.0458 28.4978 8.69722C28.0744 8.28874 27.5485 7.95139 26.936 7.67603C26.9028 7.85384 26.8669 8.03404 26.8239 8.2201Z" fill="#2790C3"/>
<path d="M25.424 7.16507C25.1987 7.10931 24.9713 7.05994 24.7422 7.01705C24.5023 6.97234 24.2609 6.93345 24.0183 6.90043C23.1502 6.78133 22.2019 6.7251 21.1836 6.7251H12.5927C12.3877 6.72471 12.1852 6.76373 12.0005 6.83924C11.7997 6.9205 11.6253 7.04204 11.4923 7.19332C11.3594 7.34461 11.272 7.52107 11.2376 7.70745L9.41162 17.5218L9.35889 17.8079C9.479 17.1621 10.1306 16.6858 10.9022 16.6858H14.1183C20.4345 16.6858 25.3801 14.5111 26.8247 8.22013C26.8677 8.03407 26.9038 7.85378 26.937 7.67606C26.5711 7.51235 26.1752 7.3709 25.7487 7.25099C25.6411 7.22076 25.5329 7.19211 25.4241 7.16507" fill="#1F264F"/>
</g>
<defs>
<clipPath id="clip0_6_269">
<rect width="30" height="30" fill="white"/>
</clipPath>
</defs>
</svg>
