<svg width="18" height="18" viewBox="0 0 18 18" fill="none" xmlns="http://www.w3.org/2000/svg">
<path d="M16.2559 10.9988L15.1045 10.0145C15.159 9.68048 15.1871 9.33947 15.1871 8.99845C15.1871 8.65743 15.159 8.31642 15.1045 7.98243L16.2559 6.99806C16.3427 6.92371 16.4049 6.82469 16.4341 6.71417C16.4633 6.60364 16.4581 6.48684 16.4193 6.37931L16.4035 6.3336C16.0865 5.44771 15.6119 4.62647 15.0025 3.90957L14.9709 3.87266C14.897 3.78574 14.7984 3.72326 14.6883 3.69345C14.5782 3.66364 14.4616 3.6679 14.3539 3.70567L12.9248 4.21368C12.3975 3.78125 11.8086 3.44024 11.1723 3.20118L10.8963 1.70703C10.8755 1.59461 10.8209 1.49118 10.7399 1.41048C10.6589 1.32979 10.5553 1.27566 10.4428 1.25527L10.3953 1.24648C9.47949 1.08125 8.51621 1.08125 7.60039 1.24648L7.55293 1.25527C7.44042 1.27566 7.33678 1.32979 7.25578 1.41048C7.17477 1.49118 7.12024 1.59461 7.09941 1.70703L6.82168 3.20821C6.19043 3.44732 5.60258 3.78815 5.08145 4.21719L3.6418 3.70567C3.53416 3.6676 3.41749 3.66318 3.30728 3.69301C3.19707 3.72284 3.09855 3.7855 3.02481 3.87266L2.99317 3.90957C2.38452 4.62698 1.90996 5.44808 1.59219 6.3336L1.57637 6.37931C1.49727 6.59903 1.56231 6.84513 1.73985 6.99806L2.90528 7.99298C2.85078 8.32345 2.82442 8.66095 2.82442 8.99669C2.82442 9.33419 2.85078 9.67169 2.90528 10.0004L1.73985 10.9953C1.653 11.0697 1.59085 11.1687 1.56165 11.2792C1.53245 11.3897 1.53758 11.5065 1.57637 11.6141L1.59219 11.6598C1.91035 12.5457 2.38145 13.3631 2.99317 14.0838L3.02481 14.1207C3.09873 14.2076 3.19726 14.2701 3.3074 14.2999C3.41754 14.3297 3.53413 14.3255 3.6418 14.2877L5.08145 13.7762C5.60528 14.2069 6.19063 14.5479 6.82168 14.7852L7.09941 16.2864C7.12024 16.3988 7.17477 16.5022 7.25578 16.5829C7.33678 16.6636 7.44042 16.7177 7.55293 16.7381L7.60039 16.7469C8.52463 16.913 9.47108 16.913 10.3953 16.7469L10.4428 16.7381C10.5553 16.7177 10.6589 16.6636 10.7399 16.5829C10.8209 16.5022 10.8755 16.3988 10.8963 16.2864L11.1723 14.7922C11.8083 14.5538 12.4005 14.2116 12.9248 13.7797L14.3539 14.2877C14.4615 14.3258 14.5782 14.3302 14.6884 14.3004C14.7986 14.2705 14.8972 14.2079 14.9709 14.1207L15.0025 14.0838C15.6143 13.3613 16.0853 12.5457 16.4035 11.6598L16.4193 11.6141C16.4984 11.3979 16.4334 11.1518 16.2559 10.9988ZM13.8564 8.18986C13.9004 8.45529 13.9232 8.72775 13.9232 9.00021C13.9232 9.27267 13.9004 9.54513 13.8564 9.81056L13.7404 10.5154L15.0535 11.6387C14.8545 12.0973 14.6032 12.5314 14.3047 12.9324L12.6734 12.3541L12.1215 12.8076C11.7014 13.1522 11.2338 13.4229 10.7275 13.6127L10.0578 13.8641L9.74316 15.5692C9.24671 15.6254 8.74548 15.6254 8.24902 15.5692L7.93438 13.8606L7.26992 13.6057C6.76895 13.4158 6.30313 13.1451 5.88653 12.8024L5.33457 12.3471L3.69278 12.9307C3.39395 12.5281 3.14434 12.094 2.94395 11.6369L4.2711 10.5031L4.15684 9.80001C4.11465 9.5381 4.0918 9.2674 4.0918 9.00021C4.0918 8.73126 4.11289 8.46232 4.15684 8.2004L4.2711 7.49728L2.94395 6.36349C3.14258 5.9047 3.39395 5.47227 3.69278 5.06973L5.33457 5.65333L5.88653 5.19805C6.30313 4.85528 6.76895 4.58458 7.26992 4.39473L7.93613 4.14336L8.25078 2.43477C8.74473 2.37852 9.24922 2.37852 9.74492 2.43477L10.0596 4.13985L10.7293 4.39122C11.2338 4.58106 11.7031 4.85176 12.1232 5.1963L12.6752 5.64981L14.3064 5.07149C14.6053 5.47403 14.8549 5.90821 15.0553 6.36524L13.7422 7.48849L13.8564 8.18986ZM8.99961 5.73067C7.29102 5.73067 5.90586 7.11583 5.90586 8.82443C5.90586 10.533 7.29102 11.9182 8.99961 11.9182C10.7082 11.9182 12.0934 10.533 12.0934 8.82443C12.0934 7.11583 10.7082 5.73067 8.99961 5.73067ZM10.3918 10.2166C10.2092 10.3997 9.9922 10.545 9.75327 10.6439C9.51435 10.7429 9.25821 10.7936 8.99961 10.7932C8.47402 10.7932 7.98008 10.5875 7.60742 10.2166C7.4243 10.034 7.27909 9.81701 7.18014 9.57809C7.08119 9.33916 7.03046 9.08303 7.03086 8.82443C7.03086 8.29884 7.23652 7.80489 7.60742 7.43224C7.98008 7.05958 8.47402 6.85567 8.99961 6.85567C9.5252 6.85567 10.0191 7.05958 10.3918 7.43224C10.5749 7.61484 10.7201 7.83184 10.8191 8.07077C10.918 8.30969 10.9688 8.56582 10.9684 8.82443C10.9684 9.35001 10.7627 9.84396 10.3918 10.2166Z" fill="#757575"/>
</svg>
