<svg width="22" height="22" viewBox="0 0 22 22" fill="none" xmlns="http://www.w3.org/2000/svg">
<path d="M12.9059 1.79395C13.0515 1.79395 13.1933 1.83815 13.3109 1.92016C13.4285 2.00217 13.5159 2.11778 13.5604 2.25032L14.3167 4.49803C14.6343 4.64665 14.9382 4.81368 15.2283 5.00176L17.6428 4.50461C17.7852 4.47553 17.9335 4.49044 18.0664 4.54716C18.1994 4.60389 18.3101 4.69951 18.3826 4.82027L20.2883 7.97547C20.3611 8.09614 20.3919 8.23581 20.3763 8.37434C20.3608 8.51285 20.2996 8.64306 20.2017 8.74618L18.5448 10.4954C18.5689 10.8309 18.5689 11.1675 18.5448 11.5028L20.2017 13.2547C20.2996 13.3579 20.3608 13.4881 20.3763 13.6266C20.3919 13.7651 20.3611 13.9048 20.2883 14.0255L18.3826 17.182C18.3099 17.3025 18.1991 17.3979 18.0662 17.4543C17.9332 17.5108 17.785 17.5255 17.6428 17.4963L15.2283 16.9992C14.9396 17.1859 14.6343 17.3543 14.3181 17.5029L13.5604 19.7506C13.5159 19.8831 13.4285 19.9988 13.3109 20.0808C13.1933 20.1628 13.0515 20.207 12.9059 20.207H9.09445C8.94889 20.207 8.80709 20.1628 8.68948 20.0808C8.57186 19.9988 8.48449 19.8831 8.43995 19.7506L7.68507 17.5042C7.3683 17.3561 7.06276 17.1869 6.7707 16.9979L4.35758 17.4963C4.21522 17.5254 4.06689 17.5105 3.93394 17.4537C3.801 17.397 3.69032 17.3015 3.61783 17.1806L1.71208 14.0255C1.63931 13.9048 1.60849 13.7651 1.62406 13.6266C1.63963 13.4881 1.70078 13.3579 1.79871 13.2547L3.45558 11.5028C3.43158 11.1683 3.43158 10.8326 3.45558 10.4981L1.79871 8.74618C1.70078 8.64306 1.63963 8.51285 1.62406 8.37434C1.60849 8.23581 1.63931 8.09614 1.71208 7.97547L3.61783 4.81895C3.69052 4.69843 3.80129 4.60309 3.93421 4.5466C4.06714 4.49012 4.21537 4.47542 4.35758 4.50461L6.7707 5.00308C7.0622 4.815 7.36745 4.64534 7.68507 4.49672L8.44132 2.25032C8.48572 2.11821 8.57267 2.00291 8.68974 1.92093C8.80681 1.83895 8.94799 1.79451 9.09307 1.79395H12.9046H12.9059ZM12.4027 3.10916H9.5977L8.8167 5.43316L8.29007 5.6791C8.03118 5.80028 7.78127 5.93826 7.54207 6.09208L7.05533 6.40773L4.55833 5.89216L3.15583 8.21747L4.8677 10.0299L4.82645 10.5874C4.8067 10.8624 4.8067 11.1385 4.82645 11.4135L4.8677 11.971L3.15308 13.7835L4.55695 16.1088L7.05395 15.5945L7.5407 15.9089C7.77989 16.0627 8.02981 16.2007 8.2887 16.3218L8.81532 16.5678L9.5977 18.8918H12.4054L13.1892 16.5665L13.7144 16.3218C13.973 16.201 14.2225 16.063 14.4611 15.9089L14.9464 15.5945L17.4448 16.1088L18.8473 13.7835L17.1341 11.971L17.1753 11.4135C17.1951 11.138 17.1951 10.8616 17.1753 10.5862L17.1341 10.0285L18.8487 8.21747L17.4448 5.89216L14.9464 6.4051L14.4611 6.09208C14.2225 5.93795 13.9731 5.79995 13.7144 5.6791L13.1892 5.43447L12.4041 3.10916H12.4027ZM11.0002 7.05481C12.0942 7.05481 13.1434 7.47052 13.917 8.21047C14.6906 8.95042 15.1252 9.95403 15.1252 11.0005C15.1252 12.0469 14.6906 13.0505 13.917 13.7904C13.1434 14.5304 12.0942 14.9461 11.0002 14.9461C9.90618 14.9461 8.85697 14.5304 8.08338 13.7904C7.3098 13.0505 6.8752 12.0469 6.8752 11.0005C6.8752 9.95403 7.3098 8.95042 8.08338 8.21047C8.85697 7.47052 9.90618 7.05481 11.0002 7.05481ZM11.0002 8.37003C10.2708 8.37003 9.57138 8.64717 9.05565 9.14047C8.53993 9.63379 8.2502 10.3029 8.2502 11.0005C8.2502 11.6981 8.53993 12.3671 9.05565 12.8604C9.57138 13.3538 10.2708 13.6309 11.0002 13.6309C11.7295 13.6309 12.429 13.3538 12.9447 12.8604C13.4605 12.3671 13.7502 11.6981 13.7502 11.0005C13.7502 10.3029 13.4605 9.63379 12.9447 9.14047C12.429 8.64717 11.7295 8.37003 11.0002 8.37003Z" fill="#8E8E8E"/>
</svg>
