<svg width="22" height="23" viewBox="0 0 22 23" fill="none" xmlns="http://www.w3.org/2000/svg">
<path d="M12.9059 1.875C13.0515 1.875 13.1933 1.92121 13.3109 2.00695C13.4285 2.09269 13.5159 2.21355 13.5604 2.35212L14.3167 4.702C14.6343 4.85737 14.9382 5.032 15.2283 5.22862L17.6428 4.70888C17.7852 4.67848 17.9335 4.69406 18.0664 4.75336C18.1994 4.81267 18.3101 4.91264 18.3826 5.03888L20.2883 8.3375C20.3611 8.46366 20.3919 8.60968 20.3763 8.7545C20.3608 8.89931 20.2996 9.03544 20.2017 9.14325L18.5448 10.972C18.5689 11.3227 18.5689 11.6746 18.5448 12.0252L20.2017 13.8567C20.2996 13.9646 20.3608 14.1007 20.3763 14.2455C20.3919 14.3903 20.3611 14.5363 20.2883 14.6625L18.3826 17.9625C18.3099 18.0885 18.1991 18.1882 18.0662 18.2472C17.9332 18.3063 17.785 18.3216 17.6428 18.2911L15.2283 17.7714C14.9396 17.9666 14.6343 18.1426 14.3181 18.298L13.5604 20.6479C13.5159 20.7864 13.4285 20.9073 13.3109 20.9931C13.1933 21.0788 13.0515 21.125 12.9059 21.125H9.09445C8.94889 21.125 8.80709 21.0788 8.68948 20.9931C8.57186 20.9073 8.48449 20.7864 8.43995 20.6479L7.68507 18.2994C7.3683 18.1445 7.06276 17.9676 6.7707 17.77L4.35758 18.2911C4.21522 18.3215 4.06689 18.3059 3.93394 18.2466C3.801 18.1873 3.69032 18.0874 3.61783 17.9611L1.71208 14.6625C1.63931 14.5363 1.60849 14.3903 1.62406 14.2455C1.63963 14.1007 1.70078 13.9646 1.79871 13.8567L3.45558 12.0252C3.43158 11.6755 3.43158 11.3245 3.45558 10.9748L1.79871 9.14325C1.70078 9.03544 1.63963 8.89931 1.62406 8.7545C1.60849 8.60968 1.63931 8.46366 1.71208 8.3375L3.61783 5.0375C3.69052 4.91151 3.80129 4.81183 3.93421 4.75278C4.06714 4.69373 4.21537 4.67836 4.35758 4.70888L6.7707 5.23C7.0622 5.03338 7.36745 4.856 7.68507 4.70063L8.44132 2.35212C8.48572 2.214 8.57267 2.09346 8.68974 2.00776C8.80681 1.92205 8.94799 1.87559 9.09307 1.875H12.9046H12.9059ZM12.4027 3.25H9.5977L8.8167 5.67963L8.29007 5.93675C8.03118 6.06344 7.78127 6.20769 7.54207 6.3685L7.05533 6.6985L4.55833 6.1595L3.15583 8.5905L4.8677 10.4853L4.82645 11.0682C4.8067 11.3557 4.8067 11.6443 4.82645 11.9318L4.8677 12.5147L3.15308 14.4095L4.55695 16.8405L7.05395 16.3029L7.5407 16.6315C7.77989 16.7923 8.02981 16.9366 8.2887 17.0632L8.81532 17.3204L9.5977 19.75H12.4054L13.1892 17.319L13.7144 17.0632C13.973 16.9369 14.2225 16.7926 14.4611 16.6315L14.9464 16.3029L17.4448 16.8405L18.8473 14.4095L17.1341 12.5147L17.1753 11.9318C17.1951 11.6438 17.1951 11.3548 17.1753 11.0669L17.1341 10.4839L18.8487 8.5905L17.4448 6.1595L14.9464 6.69575L14.4611 6.3685C14.2225 6.20737 13.9731 6.0631 13.7144 5.93675L13.1892 5.681L12.4041 3.25H12.4027ZM11.0002 7.375C12.0942 7.375 13.1434 7.8096 13.917 8.58318C14.6906 9.35677 15.1252 10.406 15.1252 11.5C15.1252 12.594 14.6906 13.6432 13.917 14.4168C13.1434 15.1904 12.0942 15.625 11.0002 15.625C9.90618 15.625 8.85697 15.1904 8.08338 14.4168C7.3098 13.6432 6.8752 12.594 6.8752 11.5C6.8752 10.406 7.3098 9.35677 8.08338 8.58318C8.85697 7.8096 9.90618 7.375 11.0002 7.375ZM11.0002 8.75C10.2708 8.75 9.57138 9.03973 9.05565 9.55546C8.53993 10.0712 8.2502 10.7707 8.2502 11.5C8.2502 12.2293 8.53993 12.9288 9.05565 13.4445C9.57138 13.9603 10.2708 14.25 11.0002 14.25C11.7295 14.25 12.429 13.9603 12.9447 13.4445C13.4605 12.9288 13.7502 12.2293 13.7502 11.5C13.7502 10.7707 13.4605 10.0712 12.9447 9.55546C12.429 9.03973 11.7295 8.75 11.0002 8.75Z" fill="white"/>
</svg>
