<svg width="20" height="20" viewBox="0 0 20 20" fill="none" xmlns="http://www.w3.org/2000/svg">
<mask id="mask0_1740_924" style="mask-type:alpha" maskUnits="userSpaceOnUse" x="0" y="0" width="20" height="20">
<rect width="20" height="20" fill="#D9D9D9"/>
</mask>
<g mask="url(#mask0_1740_924)">
<path d="M9.99992 13.3334C11.0416 13.3334 11.927 12.9688 12.6562 12.2396C13.3853 11.5105 13.7499 10.625 13.7499 9.58337C13.7499 8.54171 13.3853 7.65629 12.6562 6.92712C11.927 6.19796 11.0416 5.83337 9.99992 5.83337C8.95825 5.83337 8.07283 6.19796 7.34367 6.92712C6.6145 7.65629 6.24992 8.54171 6.24992 9.58337C6.24992 10.625 6.6145 11.5105 7.34367 12.2396C8.07283 12.9688 8.95825 13.3334 9.99992 13.3334ZM9.99992 11.8334C9.37492 11.8334 8.84367 11.6146 8.40617 11.1771C7.96867 10.7396 7.74992 10.2084 7.74992 9.58337C7.74992 8.95837 7.96867 8.42712 8.40617 7.98962C8.84367 7.55212 9.37492 7.33337 9.99992 7.33337C10.6249 7.33337 11.1562 7.55212 11.5937 7.98962C12.0312 8.42712 12.2499 8.95837 12.2499 9.58337C12.2499 10.2084 12.0312 10.7396 11.5937 11.1771C11.1562 11.6146 10.6249 11.8334 9.99992 11.8334ZM9.99992 15.8334C7.97214 15.8334 6.12492 15.2674 4.45825 14.1355C2.79159 13.0035 1.58325 11.4862 0.833252 9.58337C1.58325 7.6806 2.79159 6.16324 4.45825 5.03129C6.12492 3.89935 7.97214 3.33337 9.99992 3.33337C12.0277 3.33337 13.8749 3.89935 15.5416 5.03129C17.2083 6.16324 18.4166 7.6806 19.1666 9.58337C18.4166 11.4862 17.2083 13.0035 15.5416 14.1355C13.8749 15.2674 12.0277 15.8334 9.99992 15.8334ZM9.99992 14.1667C11.5694 14.1667 13.0103 13.7535 14.3228 12.9271C15.6353 12.1007 16.6388 10.9862 17.3333 9.58337C16.6388 8.1806 15.6353 7.06601 14.3228 6.23962C13.0103 5.41323 11.5694 5.00004 9.99992 5.00004C8.43047 5.00004 6.9895 5.41323 5.677 6.23962C4.3645 7.06601 3.36103 8.1806 2.66659 9.58337C3.36103 10.9862 4.3645 12.1007 5.677 12.9271C6.9895 13.7535 8.43047 14.1667 9.99992 14.1667Z" fill="#ABABAB"/>
</g>
</svg>
